<svg width="25" height="25" viewBox="0 0 25 25" fill="none" xmlns="http://www.w3.org/2000/svg">
<path d="M22.4334 12.7545H12.6553V2.84252C12.6553 2.72056 12.5568 2.62078 12.4365 2.62078H11.7256C10.2908 2.61929 8.86987 2.90501 7.54429 3.46152C6.21871 4.01804 5.01457 4.8344 4.00098 5.86378C3.00302 6.87226 2.20806 8.06785 1.66035 9.38396C1.0916 10.7505 0.801758 12.2001 0.801758 13.6969C0.801758 15.1936 1.0916 16.6405 1.66035 18.007C2.20996 19.3236 2.99746 20.5099 4.00098 21.5272C5.00449 22.5444 6.17207 23.3427 7.47363 23.8999C8.81933 24.4786 10.2665 24.7756 11.7283 24.773C13.1631 24.7745 14.584 24.4887 15.9096 23.9322C17.2352 23.3757 18.4393 22.5593 19.4529 21.53C20.4564 20.5127 21.2439 19.3292 21.7936 18.0098C22.3645 16.6457 22.6574 15.1787 22.6549 13.6969V12.9762C22.6521 12.8542 22.5537 12.7545 22.4334 12.7545ZM24.8369 11.2161L24.7658 10.4345C24.5334 7.88442 23.4178 5.4785 21.6186 3.66298C19.821 1.84236 17.4523 0.715814 14.9221 0.478182L14.1482 0.406115C14.0197 0.395028 13.9104 0.494813 13.9104 0.625087V11.2605C13.9104 11.3824 14.0088 11.4822 14.1291 11.4822L24.6182 11.4545C24.7467 11.4517 24.8479 11.3436 24.8369 11.2161Z" fill="#9D90FA"/>
</svg>
